name rise42.5664peak47.7979fall81.9185.mot
datacolumns 19
datarows 20
range 18.82659100000000 18.85825600000000
endheader
time	ground_force1_vx	ground_force1_vy	ground_force1_vz	ground_force1_px	ground_force1_py	ground_force1_pz	ground_force2_vx	ground_force2_vy	ground_force2_vz	ground_force2_px	ground_force2_py	ground_force2_pz	ground_torque1_x	ground_torque1_y	ground_torque1_z	ground_torque2_x	ground_torque2_y	ground_torque2_z	
18.82659100000000	-41.71819000000000	804.77676199999996	51.36010300000000	0.10439700000000	0.00000000000000	0.10674900000000	-7.40516800000000	67.02380100000001	14.70347600000000	0.36924900000000	0.00000000000000	-0.04895100000000	0.00000000000000	18.42596800000000	0.00000000000000	0.00000000000000	10.59945900000000	0.00000000000000	
18.82826300000000	-42.10558700000000	802.45254499999999	51.05952300000000	0.10385100000000	0.00000000000000	0.10671200000000	-7.57100700000000	72.15253000000000	15.43563700000000	0.37142900000000	0.00000000000000	-0.04925900000000	0.00000000000000	18.35775800000000	0.00000000000000	0.00000000000000	11.18306200000000	0.00000000000000	
18.82992600000000	-42.50832300000000	800.01464499999997	50.73583700000000	0.10330900000000	0.00000000000000	0.10667300000000	-7.64496300000000	77.02768300000000	16.04650300000000	0.37345200000000	0.00000000000000	-0.04956100000000	0.00000000000000	18.29109800000000	0.00000000000000	0.00000000000000	11.68327100000000	0.00000000000000	
18.83159000000000	-42.92651500000000	797.46222100000000	50.38922600000000	0.10277100000000	0.00000000000000	0.10663000000000	-7.63442700000000	81.67673400000000	16.54547000000000	0.37533200000000	0.00000000000000	-0.04986000000000	0.00000000000000	18.22608800000000	0.00000000000000	0.00000000000000	12.10591900000000	0.00000000000000	
18.83326000000000	-43.36023800000000	794.79445899999996	50.01991700000000	0.10223600000000	0.00000000000000	0.10658400000000	-7.54877500000000	86.14052200000000	16.94535800000000	0.37708000000000	0.00000000000000	-0.05015600000000	0.00000000000000	18.16281800000000	0.00000000000000	0.00000000000000	12.45946000000000	0.00000000000000	
18.83492500000000	-43.80951700000000	792.01056500000004	49.62818100000000	0.10170400000000	0.00000000000000	0.10653500000000	-7.39839200000000	90.46809000000000	17.26090500000000	0.37870800000000	0.00000000000000	-0.05044900000000	0.00000000000000	18.10137000000000	0.00000000000000	0.00000000000000	12.75389800000000	0.00000000000000	
18.83659400000000	-44.27432400000000	789.10976800000003	49.21432900000000	0.10117500000000	0.00000000000000	0.10648300000000	-7.19378500000000	94.71173300000000	17.50736200000000	0.38022300000000	0.00000000000000	-0.05074100000000	0.00000000000000	18.04181600000000	0.00000000000000	0.00000000000000	12.99976500000000	0.00000000000000	
18.83826500000000	-44.75458000000000	786.09131900000000	48.77871400000000	0.10064800000000	0.00000000000000	0.10642800000000	-6.94482900000000	98.92264200000000	17.69928100000000	0.38163300000000	0.00000000000000	-0.05103200000000	0.00000000000000	17.98422000000000	0.00000000000000	0.00000000000000	13.20724200000000	0.00000000000000	
18.83992800000000	-45.25015400000000	782.95448999999996	48.32172800000000	0.10012300000000	0.00000000000000	0.10636900000000	-6.66020100000000	103.14735300000000	17.84957400000000	0.38294700000000	0.00000000000000	-0.05132300000000	0.00000000000000	17.92863600000000	0.00000000000000	0.00000000000000	13.38544300000000	0.00000000000000	
18.84159500000000	-45.76085300000000	779.69857500000001	47.84380300000000	0.09959800000000	0.00000000000000	0.10630800000000	-6.34699800000000	107.42516200000000	17.96884800000000	0.38416800000000	0.00000000000000	-0.05161400000000	0.00000000000000	17.87510600000000	0.00000000000000	0.00000000000000	13.54192100000000	0.00000000000000	
18.84326100000000	-46.28643100000000	776.32288700000004	47.34540400000000	0.09907300000000	0.00000000000000	0.10624300000000	-6.01053700000000	111.78651700000000	18.06503600000000	0.38530400000000	0.00000000000000	-0.05190500000000	0.00000000000000	17.82366500000000	0.00000000000000	0.00000000000000	13.68236300000000	0.00000000000000	
18.84493100000000	-46.82657800000000	772.82676400000003	46.82703200000000	0.09854800000000	0.00000000000000	0.10617500000000	-5.65432700000000	116.25233299999999	18.14328800000000	0.38635900000000	0.00000000000000	-0.05219700000000	0.00000000000000	17.77433200000000	0.00000000000000	0.00000000000000	13.81049200000000	0.00000000000000	
18.84659400000000	-47.38092400000000	769.20956200000001	46.28922400000000	0.09802200000000	0.00000000000000	0.10610400000000	-5.28018400000000	120.83413299999999	18.20608800000000	0.38733800000000	0.00000000000000	-0.05249100000000	0.00000000000000	17.72711800000000	0.00000000000000	0.00000000000000	13.92813000000000	0.00000000000000	
18.84825600000000	-47.94903500000000	765.47066600000005	45.73254400000000	0.09749400000000	0.00000000000000	0.10603000000000	-4.88843900000000	125.53482900000000	18.25355100000000	0.38824300000000	0.00000000000000	-0.05278600000000	0.00000000000000	17.68202200000000	0.00000000000000	0.00000000000000	14.03538900000000	0.00000000000000	
18.84994000000000	-48.53041100000000	761.60948199999996	45.15758800000000	0.09696400000000	0.00000000000000	0.10595300000000	-4.47823200000000	130.34998700000000	18.28383200000000	0.38907800000000	0.00000000000000	-0.05308200000000	0.00000000000000	17.63902900000000	0.00000000000000	0.00000000000000	14.13096400000000	0.00000000000000	
18.85159800000000	-49.12448700000000	757.62544400000002	44.56497800000000	0.09643200000000	0.00000000000000	0.10587300000000	-4.04782700000000	135.26938600000000	18.29361800000000	0.38984800000000	0.00000000000000	-0.05338000000000	0.00000000000000	17.59811300000000	0.00000000000000	0.00000000000000	14.21247200000000	0.00000000000000	
18.85325800000000	-49.73062900000000	753.51801399999999	43.95536300000000	0.09589600000000	0.00000000000000	0.10579000000000	-3.59494400000000	140.27869200000001	18.27862200000000	0.39055300000000	0.00000000000000	-0.05368000000000	0.00000000000000	17.55923400000000	0.00000000000000	0.00000000000000	14.27681600000000	0.00000000000000	
18.85492400000000	-50.34813500000000	749.28668500000003	43.32941500000000	0.09535500000000	0.00000000000000	0.10570400000000	-3.11706400000000	145.36112100000000	18.23407600000000	0.39119700000000	0.00000000000000	-0.05398200000000	0.00000000000000	17.52233900000000	0.00000000000000	0.00000000000000	14.32053300000000	0.00000000000000	
18.85659600000000	-50.97623400000000	744.93098099999997	42.68782700000000	0.09481100000000	0.00000000000000	0.10561500000000	-2.61169700000000	150.49895400000000	18.15515500000000	0.39178100000000	0.00000000000000	-0.05428600000000	0.00000000000000	17.48736400000000	0.00000000000000	0.00000000000000	14.34010600000000	0.00000000000000	
18.85825600000000	-51.61408300000000	740.45046400000001	42.03131100000000	0.09426000000000	0.00000000000000	0.10552400000000	-2.07660000000000	155.67483400000000	18.03733500000000	0.39230900000000	0.00000000000000	-0.05459100000000	0.00000000000000	17.45422800000000	0.00000000000000	0.00000000000000	14.33223200000000	0.00000000000000	
